<svg width="93" height="93" viewBox="0 0 93 93" fill="none" xmlns="http://www.w3.org/2000/svg">
<path d="M66.1322 59.6349L57.4135 58.8284C57.4178 58.7078 57.4287 58.5864 57.4287 58.4651C57.4287 58.2122 57.4207 57.9681 57.4033 57.708L57.1802 54.5111C59.7687 52.838 61.9283 50.5806 63.4852 47.9206C65.042 45.2605 65.9527 42.2721 66.1438 39.1959L66.1569 38.978C67.5164 38.8052 68.7663 38.1428 69.6725 37.1147C70.5786 36.0865 71.0788 34.7633 71.0794 33.3929C71.0745 32.1429 70.6552 30.9299 69.8871 29.9438C69.119 28.9577 68.0455 28.2543 66.8348 27.9437L66.8798 27.2171C67.1182 26.8446 67.356 26.4486 67.5933 26.0292C67.7572 25.796 67.8378 25.5145 67.8222 25.2299L67.7059 23.4012C67.3743 18.002 64.9958 12.9326 61.0553 9.22673C57.1148 5.52083 51.9091 3.45752 46.4998 3.45752C41.0904 3.45752 35.8847 5.52083 31.9443 9.22673C28.0038 12.9326 25.6252 18.002 25.2936 23.4012L25.1773 25.2329C25.1625 25.5143 25.2423 25.7926 25.404 26.0234C25.6414 26.4423 25.8799 26.8378 26.1197 27.2098L26.1647 27.9487C24.954 28.2594 23.8805 28.9628 23.1124 29.9489C22.3443 30.935 21.925 32.148 21.9202 33.398C21.921 34.768 22.4213 36.0908 23.3275 37.1184C24.2336 38.146 25.4834 38.8079 26.8426 38.9801L26.8557 39.1981C27.047 42.2742 27.9576 45.2624 29.5145 47.9224C31.0714 50.5823 33.2309 52.8396 35.8193 54.5126L35.6013 57.7102C35.5773 58.0827 35.573 58.4562 35.5882 58.8291L26.8695 59.6349C22.2185 60.0435 17.8907 62.1847 14.7441 65.6341C11.5975 69.0835 9.86182 73.5892 9.88102 78.2581V88.2774C9.88102 88.6146 10.015 88.938 10.2534 89.1765C10.4919 89.4149 10.8153 89.5489 11.1525 89.5489H81.847C82.1842 89.5489 82.5077 89.4149 82.7461 89.1765C82.9846 88.938 83.1185 88.6146 83.1185 88.2774V78.2581C83.1378 73.5895 81.4023 69.0841 78.2562 65.6348C75.1101 62.1855 70.7829 60.044 66.1322 59.6349ZM33.9012 72.4093V61.5399L35.969 61.3488C36.5976 63.6603 37.9693 65.7008 39.8725 67.1555C41.7757 68.6102 44.1047 69.3984 46.5001 69.3984C48.8956 69.3984 51.2245 68.6102 53.1277 67.1555C55.0309 65.7008 56.4026 63.6603 57.0313 61.3488L59.0984 61.5399V72.4093H33.9012ZM29.5418 72.4093V61.941L31.3582 61.7731V72.4093H29.5418ZM61.6413 61.7731L63.4577 61.941V72.4093H61.6413V61.7731ZM28.2347 25.8148C32.8687 23.5298 37.4344 22.8141 46.4998 22.8141C55.5651 22.8141 60.1221 23.5341 64.7648 25.8243C62.2306 29.9003 59.7675 30.6661 46.4998 30.6661C33.232 30.6661 30.7719 29.8996 28.2347 25.8148ZM68.5364 33.3929C68.538 33.7996 68.4583 34.2025 68.3019 34.5779C68.1456 34.9533 67.9158 35.2937 67.626 35.5791C67.2621 35.9407 66.812 36.2035 66.3182 36.3427L66.6735 30.5593C67.2257 30.7996 67.696 31.1955 68.0268 31.6987C68.3577 32.2019 68.5347 32.7906 68.5364 33.3929ZM46.4998 5.9942C51.1943 6.00184 55.7147 7.77208 59.166 10.9544C62.6172 14.1367 64.7477 18.499 65.1354 23.1774C60.3655 20.9752 55.5426 20.2712 46.4998 20.2712C37.457 20.2712 32.6268 20.9766 27.8649 23.1774C28.2524 18.499 30.3827 14.1367 33.8338 10.9544C37.285 7.77212 41.8054 6.00186 46.4998 5.9942ZM25.3655 35.5704C25.0774 35.2855 24.8492 34.946 24.6942 34.5717C24.5392 34.1973 24.4607 33.7958 24.4631 33.3907C24.4647 32.7884 24.6417 32.1997 24.9726 31.6965C25.3034 31.1932 25.7737 30.7973 26.326 30.5571L26.6806 36.3398C26.1839 36.1993 25.7313 35.9345 25.3655 35.5704ZM29.3943 39.0397L28.8603 30.342C32.0695 32.8712 36.7348 33.2091 46.4998 33.2091C56.3868 33.2091 60.9787 32.8952 64.1371 30.3907L63.6052 39.0368C63.3388 43.3927 61.4206 47.4828 58.242 50.473C55.0634 53.4631 50.8638 55.128 46.4998 55.128C42.1358 55.128 37.9361 53.4631 34.7575 50.473C31.5789 47.4828 29.6607 43.3927 29.3943 39.0368V39.0397ZM46.4998 57.6746C49.3399 57.6767 52.1465 57.0604 54.7245 55.8684L54.8647 57.8795C54.8778 58.0778 54.8843 58.2689 54.8843 58.4665C54.8792 59.7215 54.5944 60.9595 54.0509 62.0906C53.5073 63.2217 52.7185 64.2175 51.7419 65.0056C50.5964 65.9242 49.2297 66.5256 47.7786 66.7497C46.3275 66.9738 44.843 66.8126 43.4738 66.2824C42.1046 65.7522 40.8987 64.8715 39.977 63.7285C39.0553 62.5855 38.4501 61.2205 38.222 59.77C38.1202 59.1458 38.0907 58.5119 38.1341 57.8809L38.2751 55.8625C40.8525 57.0566 43.6591 57.675 46.4998 57.6746ZM12.424 78.2581C12.4079 74.2425 13.8945 70.3662 16.5915 67.3911C19.2886 64.4161 23.0009 62.5575 26.9988 62.1807V87.0059H12.424V78.2581ZM29.5418 87.0059V74.9523H63.4577V87.0059H29.5418ZM80.5755 87.0059H66.0007V62.1807C69.9986 62.5575 73.711 64.4161 76.408 67.3911C79.105 70.3662 80.5916 74.2425 80.5755 78.2581V87.0059Z" fill="black"/>
<path d="M15.7304 75.5334C15.5642 75.5137 15.3958 75.5273 15.2349 75.5734C15.074 75.6195 14.9239 75.6972 14.7933 75.8018C14.6627 75.9065 14.5543 76.0361 14.4743 76.1832C14.3943 76.3302 14.3444 76.4916 14.3274 76.6581C14.2695 77.1907 14.2404 77.7259 14.2402 78.2616V80.134C14.2402 80.4712 14.3742 80.7946 14.6126 81.0331C14.8511 81.2715 15.1745 81.4055 15.5117 81.4055C15.8489 81.4055 16.1723 81.2715 16.4108 81.0331C16.6492 80.7946 16.7832 80.4712 16.7832 80.134V78.2616C16.7829 77.8189 16.8072 77.3765 16.8559 76.9364C16.8741 76.7704 16.8595 76.6024 16.8128 76.442C16.7661 76.2816 16.6883 76.132 16.5838 76.0017C16.4793 75.8714 16.3501 75.763 16.2037 75.6826C16.0573 75.6023 15.8964 75.5516 15.7304 75.5334Z" fill="black"/>
<path d="M46.5 18.2629C47.3981 18.2629 48.2761 17.9966 49.0229 17.4976C49.7696 16.9987 50.3517 16.2895 50.6954 15.4597C51.039 14.6299 51.129 13.7169 50.9538 12.836C50.7785 11.9551 50.3461 11.146 49.711 10.5109C49.0759 9.87587 48.2668 9.44338 47.3859 9.26816C46.505 9.09295 45.592 9.18288 44.7622 9.52657C43.9325 9.87027 43.2233 10.4523 42.7243 11.1991C42.2253 11.9458 41.959 12.8238 41.959 13.7219C41.9603 14.9259 42.4392 16.0801 43.2905 16.9314C44.1418 17.7827 45.2961 18.2616 46.5 18.2629ZM46.5 11.7239C46.8952 11.7239 47.2815 11.8411 47.6101 12.0606C47.9386 12.2802 48.1947 12.5922 48.346 12.9573C48.4972 13.3224 48.5367 13.7241 48.4597 14.1117C48.3826 14.4993 48.1923 14.8553 47.9128 15.1348C47.6334 15.4142 47.2774 15.6045 46.8898 15.6816C46.5022 15.7587 46.1005 15.7191 45.7354 15.5679C45.3703 15.4167 45.0582 15.1606 44.8387 14.832C44.6191 14.5034 44.502 14.1171 44.502 13.7219C44.5023 13.1921 44.713 12.6841 45.0876 12.3095C45.4622 11.9349 45.9702 11.7243 46.5 11.7239Z" fill="black"/>
</svg>
