<svg width="93" height="93" viewBox="0 0 93 93" fill="none" xmlns="http://www.w3.org/2000/svg">
<g clip-path="url(#clip0_918_46)">
<path d="M83.4094 23.4752H79.3261C80.1758 22.6516 80.8367 21.6534 81.2631 20.5495C81.6896 19.4457 81.8716 18.2625 81.7964 17.0815C81.2471 12.2222 75.3925 9.4264 74.7676 9.14014C72.6751 8.09534 72.6737 7.38622 72.6737 6.1002C72.6737 4.1007 72.3831 2.16369 68.9624 0.454811C62.7096 -2.65924 51.753 11.8836 48.6652 16.2328H42.8948C39.8156 11.888 28.8518 -2.65924 22.6019 0.454811C19.1812 2.16369 18.8906 4.1007 18.8906 6.10311C18.8906 7.38912 18.8906 8.09825 16.801 9.14159C16.2503 9.39298 10.3099 12.1932 9.75773 17.0887C9.68258 18.2697 9.86452 19.4529 10.291 20.5568C10.7175 21.6606 11.3784 22.6588 12.228 23.4825H9.59062C8.20404 23.4852 6.87501 24.0372 5.89454 25.0177C4.91407 25.9981 4.36206 27.3271 4.35938 28.7137V41.414C4.362 42.6484 4.80101 43.842 5.59877 44.7839C6.39654 45.7258 7.50167 46.3553 8.71875 46.561V87.1221C8.72029 88.6805 9.34006 90.1747 10.442 91.2767C11.544 92.3787 13.0382 92.9985 14.5966 93H78.4034C79.9618 92.9985 81.456 92.3787 82.558 91.2767C83.6599 90.1747 84.2797 88.6805 84.2812 87.1221V46.5668C85.4993 46.3609 86.6052 45.7306 87.4031 44.7875C88.201 43.8444 88.6394 42.6494 88.6406 41.414V28.7108C88.6391 27.3235 88.0876 25.9933 87.107 25.0119C86.1264 24.0305 84.7967 23.4779 83.4094 23.4752ZM78.9047 17.4113C79.1168 19.2888 77.8119 21.3348 75.0597 23.4752H59.7351C64.8762 21.0703 71.4938 17.25 74.663 12.3893C76.1641 13.2845 78.6402 15.095 78.9047 17.4113ZM37.7812 22.8475C33.99 21.3856 25.4864 17.731 20.9134 12.8209C25.4631 14.1215 33.0789 16.8185 37.7812 21.2243V22.8475ZM40.6875 19.7363C40.6875 19.5782 40.7502 19.4265 40.8619 19.3145C40.9736 19.2026 41.1251 19.1395 41.2833 19.1391H50.2636C50.4217 19.1395 50.5733 19.2026 50.685 19.3145C50.7966 19.4265 50.8594 19.5782 50.8594 19.7363V23.4752H40.6875V19.7363ZM70.6219 12.8325C66.046 17.7354 57.551 21.3871 53.7656 22.8475V21.2389C58.4607 16.8344 66.0692 14.136 70.6219 12.8325ZM67.659 3.06026C69.7602 4.10797 69.7602 4.81709 69.7602 6.10456C69.6535 7.40693 70.0238 8.70367 70.8021 9.75336C66.5488 10.8955 58.7513 13.4457 53.2192 17.8647C52.9004 17.3685 52.4616 16.9607 51.9434 16.679C57.041 9.77806 64.7382 1.59842 67.659 3.06026ZM21.7969 6.10311C21.7969 4.81564 21.7969 4.10651 23.8981 3.06026C26.8247 1.60714 34.5161 9.77661 39.6195 16.676C39.0993 16.9565 38.6584 17.3639 38.3378 17.8603C32.7999 13.4414 25.0054 10.8941 20.755 9.7519C21.5332 8.70221 21.9035 7.40547 21.7969 6.10311ZM12.6422 17.4171C12.8878 15.22 15.2171 13.3731 16.8766 12.3821C20.0415 17.2457 26.6663 21.0718 31.8104 23.4752H16.4901C13.7407 21.3304 12.4358 19.2931 12.6422 17.4171ZM7.26562 41.414V28.7108C7.26792 28.0949 7.51361 27.5049 7.94914 27.0693C8.38466 26.6338 8.9747 26.3881 9.59062 26.3858H34.875V43.7492H9.59062C8.97294 43.7469 8.38137 43.4998 7.94556 43.0621C7.50974 42.6244 7.26524 42.0317 7.26562 41.414ZM11.625 87.1221V46.6555H34.875V90.0937H14.5966C13.8087 90.093 13.0533 89.7796 12.4962 89.2225C11.9391 88.6654 11.6258 87.91 11.625 87.1221ZM37.7812 45.2023V26.3815H55.2188V90.0937H37.7812V45.2023ZM81.375 87.1221C81.3742 87.91 81.0609 88.6654 80.5038 89.2225C79.9467 89.7796 79.1913 90.093 78.4034 90.0937H58.125V46.6555H81.375V87.1221ZM85.7344 41.414C85.7321 42.03 85.4864 42.62 85.0509 43.0555C84.6153 43.4911 84.0253 43.7368 83.4094 43.739H58.125V26.3815H83.4094C84.0253 26.3838 84.6153 26.6295 85.0509 27.065C85.4864 27.5005 85.7321 28.0905 85.7344 28.7065V41.414Z" fill="black"/>
</g>
<defs>
<clipPath id="clip0_918_46">
<rect width="93" height="93" fill="white"/>
</clipPath>
</defs>
</svg>
