<svg width="93" height="93" viewBox="0 0 93 93" fill="none" xmlns="http://www.w3.org/2000/svg">
<g clip-path="url(#clip0_918_33)">
<path d="M1.45734 13.5465C1.98239 14.0709 2.85654 14.0709 3.38159 13.5465L4.536 12.3921L5.6904 13.5465C6.92073 14.7768 8.87194 12.8796 7.61394 11.6223L6.45953 10.4686L7.61394 9.31416C8.81802 8.11009 6.9484 6.13192 5.6904 7.38991L4.536 8.54432L3.38159 7.38991C2.17752 6.18655 0.198634 8.05545 1.45734 9.31416L2.61175 10.4686L1.45734 11.6223C0.926612 12.1537 0.926612 13.0151 1.45734 13.5465Z" fill="black"/>
<path d="M12.3402 28.6921C12.8652 29.2171 13.7394 29.2171 14.2637 28.6921L15.4181 27.5377L16.5725 28.6921C17.8035 29.9224 19.7541 28.0258 18.4968 26.7686L17.3424 25.6142L18.4968 24.4597C19.7001 23.2564 17.8312 21.2775 16.5725 22.5362L15.4181 23.6906L14.2637 22.5362C13.0603 21.3321 11.0815 23.2017 12.3402 24.4597L13.4946 25.6142L12.3402 26.7686C11.8087 27.2993 11.8087 28.1607 12.3402 28.6921Z" fill="black"/>
<path d="M91.7776 41.4004C91.2462 40.8683 90.3848 40.869 89.8541 41.3997L88.6997 42.5541L87.5453 41.3997C86.3412 40.1963 84.3623 42.0652 85.621 43.3239L86.7754 44.4783L85.621 45.632C84.3637 46.8893 86.315 48.7866 87.5453 47.5563L88.6997 46.4019L89.8541 47.5563C91.0844 48.7866 93.0356 46.8893 91.7776 45.632L90.6232 44.4783L91.7776 43.3239C92.3091 42.7925 92.3091 41.9311 91.7776 41.4004Z" fill="black"/>
<path d="M1.45734 47.5564C1.98239 48.0814 2.85654 48.0814 3.38159 47.5564L4.536 46.4019L5.6904 47.5564C6.92073 48.7867 8.87194 46.8901 7.61394 45.6328L6.45953 44.4784L7.61394 43.324C8.81802 42.1206 6.9484 40.1418 5.6904 41.4005L4.536 42.5549L3.38159 41.4005C2.17752 40.1971 0.198634 42.066 1.45734 43.324L2.61175 44.4784L1.45734 45.6328C0.926612 46.1635 0.926612 47.0249 1.45734 47.5564Z" fill="black"/>
<path d="M75.5564 50.3242H63.8002C64.1004 49.477 64.3366 48.6128 64.5062 47.733H65.4102C68.0702 47.733 70.2343 45.5689 70.2343 42.9089C70.2343 41.9957 69.9788 41.1407 69.5361 40.4113V30.3601C69.5361 21.7798 64.795 14.2864 57.7962 10.3591C57.3577 4.57435 52.5137 0 46.6182 0C40.7263 0 35.8845 4.56867 35.441 10.3485C34.4363 10.9126 33.4664 11.5526 32.5404 12.2742C31.1561 13.3527 32.8292 15.4997 34.2128 14.4205C37.747 11.6661 42.1376 10.1633 46.6182 10.1633C57.616 10.1633 66.8157 19.3709 66.8157 30.3601V38.2941C66.1722 38.0983 65.5031 38.0677 64.8362 38.0848V35.4964C65.0753 34.6925 64.4757 33.8155 63.6356 33.7517C56.6226 33.2209 53.6958 28.7325 52.772 26.8586C54.6565 25.1585 56.4899 23.1264 58.1673 20.6892C59.162 19.2432 56.9199 17.7007 55.9259 19.1467C50.1503 27.5383 40.1608 33.1926 29.8499 33.0102C28.9772 32.9698 28.4003 33.7481 28.4003 34.5584V38.0848C27.7334 38.0677 27.0643 38.0983 26.4207 38.2941V30.3601C26.4207 26.513 27.5063 22.7717 29.5597 19.5412C30.5012 18.0604 28.2052 16.6009 27.2637 18.0817C24.9321 21.7492 23.7004 25.9951 23.7004 30.3601V40.4113C23.2569 41.14 23.0015 41.995 23.0015 42.9089C23.0015 45.5689 25.1656 47.733 27.8256 47.733H28.7295C28.8998 48.6128 29.1361 49.477 29.4355 50.3235H17.68C14.1622 50.3235 11.2964 53.1623 11.2495 56.6695H10.6386C10.1022 56.6695 9.61549 56.9846 9.39625 57.4748L0.300772 77.8313C0.0907512 78.3017 0.164542 78.8509 0.491636 79.2496L5.70172 85.5907C5.57613 85.6815 5.45409 85.7787 5.34057 85.8887C4.72895 86.484 4.39193 87.278 4.39193 88.1252L4.39264 89.8564C4.39335 91.5884 5.82518 92.9968 7.58482 92.9975L17.7169 92.9996H17.7176C17.7276 92.9996 17.7382 92.9982 17.7481 92.9982C17.7581 92.9982 17.7673 92.9996 17.7772 92.9996H62.0363C63.791 92.9996 63.791 90.2786 62.0363 90.2786H20.8786C20.897 90.1395 20.9098 89.9997 20.9098 89.8571L20.9091 88.1259C20.9091 87.0864 20.3911 86.1654 19.5979 85.5935L24.8058 79.2539C25.1329 78.8558 25.2067 78.306 24.996 77.8355L23.904 75.394C23.1881 73.7919 20.704 74.9023 21.4207 76.5045L22.1685 78.1775L16.7044 84.8294L8.59732 84.828L3.12896 78.1726L11.2843 59.9192L11.2871 72.3012C10.0398 72.8241 9.177 74.0814 9.17771 75.4402C9.17771 77.3218 10.7351 78.8523 12.6487 78.8523C14.5056 78.8523 16.1191 77.3133 16.1191 75.4402C16.1183 74.0339 15.2477 72.8234 14.0082 72.3019L14.0054 59.9213L18.5009 69.9746C19.2169 71.576 21.7009 70.4656 20.9843 68.8642L15.892 57.4755C15.6735 56.986 15.1867 56.6709 14.6503 56.6709L13.9727 56.6702C14.0188 54.6637 15.6621 53.0452 17.68 53.0452H75.5564C77.6027 53.0452 79.268 54.7105 79.268 56.7568V86.5677C79.268 88.614 77.6027 90.2793 75.5564 90.2793H70.3797C68.625 90.2793 68.625 93.0003 70.3797 93.0003H75.5564C79.1034 93.0003 81.9891 90.1147 81.9891 86.5677V56.7561C81.9891 53.2098 79.1034 50.3242 75.5564 50.3242ZM38.4359 8.9408C39.4328 5.35838 42.7222 2.72105 46.6182 2.72105C50.5185 2.72105 53.8115 5.36476 54.8034 8.95428C52.2597 7.97867 49.5004 7.44227 46.6182 7.44227C43.7737 7.44227 41.0179 7.95384 38.4359 8.9408ZM7.11369 89.8557L7.11298 88.1244C7.11298 87.9896 7.18038 87.8953 7.23715 87.8399C7.29036 87.7888 7.40459 87.703 7.58482 87.703L17.7169 87.7051C17.9766 87.7051 18.1888 87.8946 18.1888 88.1266L18.1895 89.8578C18.1895 89.9926 18.1213 90.087 18.0646 90.1423C18.0121 90.1927 17.8971 90.2786 17.7176 90.2786L7.58553 90.2764C7.32513 90.2764 7.11369 90.0877 7.11369 89.8557ZM13.1922 75.9163C13.0489 76.0553 12.8559 76.1312 12.6487 76.1312C12.2351 76.1312 11.8981 75.8212 11.8981 75.4394C11.8981 75.2003 12.0272 75.0393 12.1038 74.9648C12.2471 74.825 12.4401 74.7491 12.6473 74.7491C13.061 74.7491 13.398 75.0591 13.398 75.4409C13.398 75.68 13.2689 75.841 13.1922 75.9163ZM65.4102 40.8058C66.5702 40.8058 67.5132 41.7495 67.5132 42.9089C67.5132 44.069 66.5702 45.0126 65.4102 45.0126H64.8191C64.8291 44.7608 64.8362 44.5089 64.8362 44.2556V40.8058H65.4102ZM27.8256 45.0119C26.6655 45.0119 25.7226 44.069 25.7226 42.9089C25.7226 41.7488 26.6662 40.8058 27.8256 40.8058H28.3996V44.2556C28.3996 44.5089 28.4067 44.7608 28.4166 45.0119H27.8256ZM31.1207 44.2556V35.7199C32.8597 35.6525 36.0604 35.3524 39.877 34.1703C42.9691 33.2124 46.829 31.5415 50.6356 28.6352C51.9901 31.076 55.2894 35.3417 62.1151 36.3202V44.2556C62.1151 46.3678 61.6993 48.4063 60.8812 50.3242H32.3545C31.5364 48.4063 31.1207 46.3685 31.1207 44.2556Z" fill="black"/>
<path d="M46.6183 66.4078C45.6441 65.3229 44.2307 64.6389 42.662 64.6389C39.7302 64.6389 37.3447 67.0244 37.3447 69.9561C37.3447 71.107 37.7208 72.2288 38.4083 73.1455C38.4629 73.2491 38.5311 73.3463 38.6127 73.4343L45.6186 81.0177C45.8761 81.2959 46.2387 81.4548 46.6183 81.4548C46.9972 81.4548 47.3598 81.2959 47.6173 81.0177L54.6232 73.4343C54.7048 73.3463 54.7729 73.2491 54.8276 73.1455C55.5158 72.2288 55.8912 71.107 55.8912 69.9561C55.8912 67.0244 53.5064 64.6389 50.5746 64.6389C49.0052 64.6389 47.5918 65.3229 46.6183 66.4078ZM53.1708 69.9561C53.1708 70.5663 52.9544 71.1595 52.5606 71.6264C52.5209 71.6739 52.484 71.7236 52.4513 71.7754L46.6176 78.0895L40.7845 71.7754C40.7512 71.7236 40.715 71.6739 40.6746 71.6264C40.2815 71.1595 40.0651 70.5663 40.0651 69.9561C40.0651 68.5243 41.2294 67.36 42.6612 67.36C44.0931 67.36 45.2574 68.5243 45.2574 69.9561C45.2574 70.7075 45.8662 71.3163 46.6176 71.3163C47.369 71.3163 47.9778 70.7075 47.9778 69.9561C47.9778 68.5243 49.1428 67.36 50.5739 67.36C52.0058 67.36 53.1708 68.5243 53.1708 69.9561Z" fill="black"/>
<path d="M40.4591 37.0554C37.8785 37.0554 35.7783 39.1556 35.7783 41.7369C35.7783 43.4916 38.4994 43.4916 38.4994 41.7369C38.4994 40.6556 39.3785 39.7765 40.4591 39.7765C41.5397 39.7765 42.4195 40.6556 42.4195 41.7369C42.4195 43.4916 45.1399 43.4916 45.1399 41.7369C45.1399 39.1556 43.0404 37.0554 40.4591 37.0554Z" fill="black"/>
<path d="M52.7755 37.0552C50.1942 37.0552 48.0947 39.1554 48.0947 41.7367C48.0947 43.4913 50.8158 43.4913 50.8158 41.7367C50.8158 40.6553 51.6949 39.7762 52.7755 39.7762C53.8561 39.7762 54.7359 40.6553 54.7359 41.7367C54.7359 43.4913 57.4563 43.4913 57.4563 41.7367C57.4563 39.1554 55.3568 37.0552 52.7755 37.0552Z" fill="black"/>
<path d="M86.0269 25.9732V24.1398C90.282 21.9594 92.9839 17.6312 92.9839 12.8752C92.9839 9.47163 91.6301 6.27377 89.1716 3.8713C86.6449 1.40284 83.2874 0.0852433 79.7171 0.170387C76.3589 0.247726 73.1986 1.59442 70.8189 3.9607C68.432 6.33479 67.1023 9.4624 67.0747 12.7681C67.0342 17.5702 69.7368 21.9409 74.0309 24.1398V25.9732C74.0309 27.2475 74.6645 28.3757 75.6352 29.076V30.483C75.6352 32.647 77.421 34.4074 79.6156 34.4074H80.4429C82.6375 34.4074 84.4227 32.647 84.4227 30.483V29.076C85.3933 28.3757 86.0269 27.2475 86.0269 25.9732ZM69.795 12.7915C69.8404 7.45869 74.319 3.01702 79.7802 2.89073C79.864 2.8886 79.9477 2.88789 80.0314 2.88789C82.7688 2.88789 85.3309 3.9231 87.27 5.81754C89.2 7.70348 90.2628 10.2102 90.2628 12.8752C90.2628 16.8408 87.8561 20.4325 84.1318 22.0261C83.6309 22.2396 83.3066 22.732 83.3066 23.2763V25.9732C83.3066 26.5947 82.7766 27.0999 82.1259 27.0999H81.4441V15.7127C81.8287 15.834 82.2366 15.9028 82.6609 15.9028C84.8626 15.9028 86.6542 14.1368 86.6542 11.9663C86.6542 10.2117 83.9331 10.2117 83.9331 11.9663C83.9331 12.6368 83.3627 13.1825 82.6609 13.1825C82.0883 13.1825 81.603 12.8178 81.4441 12.319C81.6108 10.3969 78.6684 9.98816 78.6684 11.9663C78.6684 12.6368 78.0979 13.1825 77.3962 13.1825C76.6952 13.1825 76.1247 12.6368 76.1247 11.9663C76.1247 10.2117 73.4037 10.2117 73.4037 11.9663C73.4037 14.1368 75.1952 15.9028 77.3962 15.9028C77.8617 15.9028 78.308 15.8212 78.7237 15.6758V27.0999H77.9319C77.2813 27.0999 76.7512 26.594 76.7512 25.9732V23.2763C76.7512 22.732 76.427 22.2396 75.9261 22.0254C72.1684 20.4183 69.7617 16.7933 69.795 12.7915ZM80.4422 31.6863H79.6156C78.921 31.6863 78.3562 31.1464 78.3562 30.483V29.821H81.7016V30.483C81.7016 31.1471 81.1369 31.6863 80.4422 31.6863Z" fill="black"/>
</g>
<defs>
<clipPath id="clip0_918_33">
<rect width="93" height="93" fill="white"/>
</clipPath>
</defs>
</svg>
