<svg width="93" height="93" viewBox="0 0 93 93" fill="none" xmlns="http://www.w3.org/2000/svg">
<g clip-path="url(#clip0_918_121)">
<path d="M53.8515 29.1678L39.6094 63.1038" stroke="black" stroke-width="3" stroke-miterlimit="10" stroke-linecap="round" stroke-linejoin="round"/>
<mask id="mask0_918_121" style="mask-type:luminance" maskUnits="userSpaceOnUse" x="0" y="0" width="93" height="93">
<path d="M0 7.62939e-06H93V93H0V7.62939e-06Z" fill="white"/>
</mask>
<g mask="url(#mask0_918_121)">
<path d="M43.1757 34.8988C43.1757 38.9374 40.3583 42.2114 36.8828 42.2114C33.4073 42.2114 30.5898 38.9374 30.5898 34.8988C30.5898 30.8602 33.4073 27.5861 36.8828 27.5861C40.3583 27.5861 43.1757 30.8602 43.1757 34.8988Z" stroke="black" stroke-width="3" stroke-miterlimit="10" stroke-linecap="round" stroke-linejoin="round"/>
<path d="M62.4111 58.1014C62.4111 62.14 59.5936 65.4141 56.1181 65.4141C52.6426 65.4141 49.8252 62.14 49.8252 58.1014C49.8252 54.0626 52.6426 50.7887 56.1181 50.7887C59.5936 50.7887 62.4111 54.0626 62.4111 58.1014Z" stroke="black" stroke-width="3" stroke-miterlimit="10" stroke-linecap="round" stroke-linejoin="round"/>
<path d="M52.6266 4.70786C54.6561 7.86605 58.7537 8.96406 62.0905 7.24356C66.8031 4.81376 72.4498 8.07384 72.7019 13.3701C72.8803 17.1199 75.8801 20.1197 79.6299 20.2983C84.9261 20.5502 88.1862 26.1969 85.7564 30.9095V30.9097C84.0361 34.2464 85.1341 38.3441 88.2923 40.3735C92.753 43.2398 92.753 49.7602 88.2923 52.6267C85.1341 54.6559 84.0361 58.7536 85.7564 62.0903V62.0905C88.1862 66.8032 84.9261 72.4498 79.6299 72.7019C75.8801 72.8803 72.8803 75.8801 72.7019 79.6299C72.4498 84.9262 66.8031 88.1863 62.0905 85.7564C58.7537 84.0359 54.6561 85.134 52.6266 88.2921C49.7602 92.7529 43.24 92.7529 40.3735 88.2921C38.3441 85.134 34.2464 84.0359 30.9097 85.7564C26.197 88.1863 20.5504 84.9262 20.2982 79.6299C20.1199 75.8801 17.1201 72.8803 13.3703 72.7019C8.07402 72.4498 4.81393 66.8032 7.24374 62.0905V62.0903C8.96405 58.7536 7.86604 54.6559 4.70785 52.6267C0.247122 49.7602 0.247122 43.2398 4.70785 40.3735C7.86604 38.3441 8.96405 34.2464 7.24374 30.9097V30.9095C4.81393 26.1969 8.07402 20.5502 13.3703 20.2983C17.1201 20.1197 20.1199 17.1199 20.2982 13.3701C20.5504 8.07384 26.197 4.81376 30.9097 7.24356C34.2464 8.96406 38.3441 7.86605 40.3735 4.70786C43.24 0.247133 49.7602 0.247133 52.6266 4.70786Z" stroke="black" stroke-width="3" stroke-miterlimit="10" stroke-linecap="round" stroke-linejoin="round"/>
<path d="M22.058 66.6587C17.5353 61.1813 14.8184 54.158 14.8184 46.5002C14.8184 29.0028 29.0027 14.8185 46.4999 14.8185C54.1552 14.8185 61.1759 17.5334 66.6524 22.053" stroke="black" stroke-width="3" stroke-miterlimit="10" stroke-linecap="round" stroke-linejoin="round"/>
<path d="M71.1951 26.6522C75.5655 32.0832 78.1813 38.9861 78.1813 46.5001C78.1813 63.9973 63.997 78.1816 46.4996 78.1816C38.9698 78.1816 32.0535 75.5548 26.6172 71.1674" stroke="black" stroke-width="3" stroke-miterlimit="10" stroke-linecap="round" stroke-linejoin="round"/>
</g>
</g>
<defs>
<clipPath id="clip0_918_121">
<rect width="93" height="93" fill="white"/>
</clipPath>
</defs>
</svg>
