<svg width="688" height="420" viewBox="0 0 688 420" fill="none" xmlns="http://www.w3.org/2000/svg">
<g filter="url(#filter0_d_227_285)">
<path d="M14 17C14 11.4772 18.4772 7 24 7H664C669.523 7 674 11.4772 674 17V331.085C674 336.608 669.523 341.085 664 341.085H24C18.4771 341.085 14 336.608 14 331.085V17Z" fill="white"/>
<path d="M384.708 386.628C359.355 402.659 327.992 403.141 302.22 387.898L237.459 341.575C237.003 341.249 236.521 340.962 236.017 340.717L159.477 303.469C122.255 279.378 138.183 218.035 181.659 218.035H492.6C535.737 218.035 552.394 278.247 516.234 303.469L446.666 341.085L384.708 386.628Z" fill="white"/>
</g>
<defs>
<filter id="filter0_d_227_285" x="0" y="0" width="688" height="420" filterUnits="userSpaceOnUse" color-interpolation-filters="sRGB">
<feFlood flood-opacity="0" result="BackgroundImageFix"/>
<feColorMatrix in="SourceAlpha" type="matrix" values="0 0 0 0 0 0 0 0 0 0 0 0 0 0 0 0 0 0 127 0" result="hardAlpha"/>
<feOffset dy="7"/>
<feGaussianBlur stdDeviation="7"/>
<feComposite in2="hardAlpha" operator="out"/>
<feColorMatrix type="matrix" values="0 0 0 0 0 0 0 0 0 0 0 0 0 0 0 0 0 0 0.1 0"/>
<feBlend mode="normal" in2="BackgroundImageFix" result="effect1_dropShadow_227_285"/>
<feBlend mode="normal" in="SourceGraphic" in2="effect1_dropShadow_227_285" result="shape"/>
</filter>
</defs>
</svg>
