<svg width="50" height="50" viewBox="0 0 50 50" fill="none" xmlns="http://www.w3.org/2000/svg">
<path d="M42.1875 2.34375H7.8125C6.36261 2.34542 4.97259 2.92213 3.94736 3.94736C2.92213 4.97259 2.34542 6.36261 2.34375 7.8125V20.3125C2.34375 20.5197 2.42606 20.7184 2.57257 20.8649C2.71909 21.0114 2.9178 21.0938 3.125 21.0938C3.3322 21.0938 3.53091 21.0114 3.67743 20.8649C3.82394 20.7184 3.90625 20.5197 3.90625 20.3125V7.8125C3.90747 6.77687 4.31941 5.78401 5.05171 5.05171C5.78401 4.31941 6.77687 3.90747 7.8125 3.90625H24.2188V24.2188H3.125C2.9178 24.2188 2.71909 24.3011 2.57257 24.4476C2.42606 24.5941 2.34375 24.7928 2.34375 25V42.1875C2.34542 43.6374 2.92213 45.0274 3.94736 46.0526C4.97259 47.0779 6.36261 47.6546 7.8125 47.6562H37.5C37.7072 47.6562 37.9059 47.5739 38.0524 47.4274C38.1989 47.2809 38.2812 47.0822 38.2812 46.875C38.2812 46.6678 38.1989 46.4691 38.0524 46.3226C37.9059 46.1761 37.7072 46.0938 37.5 46.0938H25.7812V25.7812H42.1875C42.3947 25.7812 42.5934 25.6989 42.7399 25.5524C42.8864 25.4059 42.9688 25.2072 42.9688 25C42.9688 24.7928 42.8864 24.5941 42.7399 24.4476C42.5934 24.3011 42.3947 24.2188 42.1875 24.2188H25.7812V3.90625H42.1875C43.2231 3.90747 44.216 4.31941 44.9483 5.05171C45.6806 5.78401 46.0925 6.77687 46.0938 7.8125V42.1875C46.0925 43.2231 45.6806 44.216 44.9483 44.9483C44.216 45.6806 43.2231 46.0925 42.1875 46.0938C41.9803 46.0938 41.7816 46.1761 41.6351 46.3226C41.4886 46.4691 41.4062 46.6678 41.4062 46.875C41.4062 47.0822 41.4886 47.2809 41.6351 47.4274C41.7816 47.5739 41.9803 47.6562 42.1875 47.6562C43.6374 47.6546 45.0274 47.0779 46.0526 46.0526C47.0779 45.0274 47.6546 43.6374 47.6562 42.1875V7.8125C47.6546 6.36261 47.0779 4.97259 46.0526 3.94736C45.0274 2.92213 43.6374 2.34542 42.1875 2.34375ZM24.2188 46.0938H7.8125C6.77687 46.0925 5.78401 45.6806 5.05171 44.9483C4.31941 44.216 3.90747 43.2231 3.90625 42.1875V25.7812H24.2188V46.0938Z" fill="#FFDD2D"/>
<path d="M14.0625 8.59375C13.8553 8.59375 13.6566 8.67606 13.5101 8.82257C13.3636 8.96909 13.2812 9.1678 13.2812 9.375V13.2812H9.375C9.1678 13.2812 8.96909 13.3636 8.82257 13.5101C8.67606 13.6566 8.59375 13.8553 8.59375 14.0625C8.59375 14.2697 8.67606 14.4684 8.82257 14.6149C8.96909 14.7614 9.1678 14.8438 9.375 14.8438H13.2812V18.75C13.2812 18.9572 13.3636 19.1559 13.5101 19.3024C13.6566 19.4489 13.8553 19.5312 14.0625 19.5312C14.2697 19.5312 14.4684 19.4489 14.6149 19.3024C14.7614 19.1559 14.8438 18.9572 14.8438 18.75V14.8438H18.75C18.9572 14.8438 19.1559 14.7614 19.3024 14.6149C19.4489 14.4684 19.5312 14.2697 19.5312 14.0625C19.5312 13.8553 19.4489 13.6566 19.3024 13.5101C19.1559 13.3636 18.9572 13.2812 18.75 13.2812H14.8438V9.375C14.8438 9.1678 14.7614 8.96909 14.6149 8.82257C14.4684 8.67606 14.2697 8.59375 14.0625 8.59375Z" fill="#FFDD2D"/>
<path d="M31.25 13.2812C31.0428 13.2812 30.8441 13.3636 30.6976 13.5101C30.5511 13.6566 30.4688 13.8553 30.4688 14.0625C30.4688 14.2697 30.5511 14.4684 30.6976 14.6149C30.8441 14.7614 31.0428 14.8438 31.25 14.8438H40.625C40.8322 14.8438 41.0309 14.7614 41.1774 14.6149C41.3239 14.4684 41.4062 14.2697 41.4062 14.0625C41.4062 13.8553 41.3239 13.6566 41.1774 13.5101C41.0309 13.3636 40.8322 13.2812 40.625 13.2812H31.25Z" fill="#FFDD2D"/>
<path d="M10.1946 39.804C10.3411 39.9505 10.5398 40.0327 10.7469 40.0327C10.9541 40.0327 11.1528 39.9505 11.2993 39.804L14.0617 37.0421L16.8239 39.804C16.9712 39.9468 17.1687 40.026 17.3738 40.0245C17.579 40.0229 17.7753 39.9407 17.9203 39.7957C18.0654 39.6506 18.1476 39.4543 18.1491 39.2492C18.1507 39.0441 18.0715 38.8465 17.9287 38.6993L15.1665 35.9374L17.9289 33.1755C18.0718 33.0283 18.1509 32.8308 18.1494 32.6256C18.1478 32.4205 18.0656 32.2242 17.9206 32.0791C17.7755 31.9341 17.5792 31.8519 17.3741 31.8504C17.1689 31.8488 16.9714 31.928 16.8242 32.0708L14.0617 34.8327L11.2996 32.0708C11.1523 31.928 10.9548 31.8488 10.7497 31.8504C10.5445 31.8519 10.3482 31.9341 10.2032 32.0791C10.0581 32.2242 9.97592 32.4205 9.97435 32.6256C9.97278 32.8308 10.052 33.0283 10.1948 33.1755L12.957 35.9374L10.1946 38.6993C10.0481 38.8458 9.96582 39.0445 9.96582 39.2516C9.96582 39.4588 10.0481 39.6575 10.1946 39.804Z" fill="#FFDD2D"/>
<path d="M31.25 33.5938H40.625C40.8322 33.5938 41.0309 33.5114 41.1774 33.3649C41.3239 33.2184 41.4062 33.0197 41.4062 32.8125C41.4062 32.6053 41.3239 32.4066 41.1774 32.2601C41.0309 32.1136 40.8322 32.0312 40.625 32.0312H31.25C31.0428 32.0312 30.8441 32.1136 30.6976 32.2601C30.5511 32.4066 30.4688 32.6053 30.4688 32.8125C30.4688 33.0197 30.5511 33.2184 30.6976 33.3649C30.8441 33.5114 31.0428 33.5938 31.25 33.5938Z" fill="#FFDD2D"/>
<path d="M31.25 39.8438H40.625C40.8322 39.8438 41.0309 39.7614 41.1774 39.6149C41.3239 39.4684 41.4062 39.2697 41.4062 39.0625C41.4062 38.8553 41.3239 38.6566 41.1774 38.5101C41.0309 38.3636 40.8322 38.2812 40.625 38.2812H31.25C31.0428 38.2812 30.8441 38.3636 30.6976 38.5101C30.5511 38.6566 30.4688 38.8553 30.4688 39.0625C30.4688 39.2697 30.5511 39.4684 30.6976 39.6149C30.8441 39.7614 31.0428 39.8438 31.25 39.8438Z" fill="#FFDD2D"/>
</svg>
