<svg width="50" height="50" viewBox="0 0 50 50" fill="none" xmlns="http://www.w3.org/2000/svg">
<path d="M37.5 36.3954V35.1563C37.4979 33.2922 36.7565 31.5049 35.4383 30.1868C34.1201 28.8686 32.3329 28.1271 30.4687 28.1251H30.3906C31.8477 27.2134 33.0494 25.9466 33.8829 24.4435C34.7165 22.9403 35.1546 21.2501 35.1562 19.5313V15.6251H35.9375C36.1447 15.6251 36.3434 15.5428 36.4899 15.3963C36.6364 15.2497 36.7187 15.051 36.7187 14.8438V13.2813C36.703 10.2751 35.5326 7.38991 33.4494 5.22238C31.3663 3.05486 28.5298 1.7708 25.5266 1.63575C22.5234 1.5007 19.5831 2.52498 17.3138 4.49679C15.0446 6.46859 13.6199 9.23709 13.3344 12.2298L2.89609 1.79148C2.78683 1.68226 2.64764 1.60788 2.49612 1.57775C2.34459 1.54762 2.18754 1.56309 2.0448 1.6222C1.90207 1.68132 1.78006 1.78143 1.69422 1.90988C1.60837 2.03832 1.56253 2.18934 1.5625 2.34383V47.6563C1.5625 47.8635 1.64481 48.0622 1.79132 48.2088C1.93784 48.3553 2.13655 48.4376 2.34375 48.4376H47.6562C47.8107 48.4375 47.9618 48.3917 48.0902 48.3059C48.2186 48.22 48.3188 48.098 48.3779 47.9553C48.437 47.8125 48.4525 47.6555 48.4223 47.504C48.3922 47.3524 48.3178 47.2132 48.2086 47.104L37.5 36.3954ZM33.5937 19.5313C33.5937 21.8105 32.6883 23.9964 31.0767 25.608C29.4651 27.2197 27.2792 28.1251 25 28.1251C22.7208 28.1251 20.5349 27.2197 18.9233 25.608C17.3117 23.9964 16.4062 21.8105 16.4062 19.5313V15.4071L24.5055 12.7079C24.8263 12.6016 25.1729 12.6016 25.4937 12.7079L33.5937 15.4071V19.5313ZM12.5 35.1563V40.6251H9.375V18.2923L19.2234 28.1407C17.4152 28.2199 15.7072 28.9934 14.4548 30.3002C13.2025 31.607 12.5023 33.3463 12.5 35.1563ZM14.8437 13.2813C14.8437 10.5877 15.9138 8.00444 17.8184 6.09977C19.7231 4.19511 22.3064 3.12508 25 3.12508C27.6936 3.12508 30.2769 4.19511 32.1815 6.09977C34.0862 8.00444 35.1562 10.5877 35.1562 13.2813V14.0626H34.5008L25.9852 11.2243C25.3434 11.0118 24.6503 11.0118 24.0086 11.2243L15.4992 14.0626H14.8437V13.2813ZM3.125 43.7501H5.46875V42.1876H3.125V39.0626H5.46875V37.5001H3.125V34.3751H5.46875V32.8126H3.125V29.6876H5.46875V28.1251H3.125V25.0001H5.46875V23.4376H3.125V20.3126H5.46875V18.7501H3.125V15.6251H5.46875V14.0626H3.125V10.9376H5.46875V9.37508H3.125V4.22976L13.2812 14.386V14.8438C13.2812 15.051 13.3636 15.2497 13.5101 15.3963C13.6566 15.5428 13.8553 15.6251 14.0625 15.6251H14.8437V19.5313C14.8462 20.3027 14.9369 21.0712 15.1141 21.822L9.14609 15.854C9.03683 15.7448 8.89764 15.6704 8.74612 15.6402C8.59459 15.6101 8.43754 15.6256 8.2948 15.6847C8.15207 15.7438 8.03006 15.8439 7.94422 15.9724C7.85837 16.1008 7.81253 16.2518 7.8125 16.4063V41.4063C7.8125 41.6135 7.89481 41.8122 8.04132 41.9588C8.18784 42.1053 8.38655 42.1876 8.59375 42.1876H12.5V46.8751H7.8125V44.5313H6.25V46.8751H3.125V43.7501ZM14.0625 46.8751V35.1563C14.0642 33.7064 14.6409 32.3164 15.6661 31.2912C16.6913 30.2659 18.0814 29.6892 19.5312 29.6876H30.4687C31.9186 29.6892 33.3087 30.2659 34.3339 31.2912C35.3591 32.3164 35.9358 33.7064 35.9375 35.1563V46.8751H14.0625ZM37.5 46.8751V38.6048L45.7703 46.8751H37.5Z" fill="#FFDD2D"/>
<path d="M48.382 9.86639L45.257 2.05389C45.1992 1.90866 45.0991 1.78413 44.9697 1.6964C44.8403 1.60867 44.6876 1.56177 44.5313 1.56177C44.3749 1.56177 44.2222 1.60867 44.0928 1.6964C43.9634 1.78413 43.8633 1.90866 43.8055 2.05389L40.6805 9.86639C40.6437 9.95861 40.6249 10.057 40.625 10.1562V33.5937C40.625 34.6297 41.0366 35.6233 41.7691 36.3559C42.5017 37.0884 43.4952 37.5 44.5313 37.5C45.5673 37.5 46.5608 37.0884 47.2934 36.3559C48.0259 35.6233 48.4375 34.6297 48.4375 33.5937V10.1562C48.4376 10.057 48.4188 9.95861 48.382 9.86639ZM44.5313 4.44686L46.5023 9.37499H42.5602L44.5313 4.44686ZM43.75 10.9375V28.125H42.1875V10.9375H43.75ZM46.875 29.6875V31.25H42.1875V29.6875H46.875ZM45.3125 28.125V10.9375H46.875V28.125H45.3125ZM44.5313 35.9375C43.9096 35.9375 43.3135 35.6906 42.874 35.251C42.4344 34.8115 42.1875 34.2153 42.1875 33.5937V32.8125H46.875V33.5937C46.875 34.2153 46.6281 34.8115 46.1885 35.251C45.749 35.6906 45.1529 35.9375 44.5313 35.9375Z" fill="#FFDD2D"/>
<path d="M21.875 21.875H20.3125C20.3125 23.1182 20.8064 24.3105 21.6854 25.1896C22.5645 26.0686 23.7568 26.5625 25 26.5625C26.2432 26.5625 27.4355 26.0686 28.3146 25.1896C29.1936 24.3105 29.6875 23.1182 29.6875 21.875H28.125C28.125 22.7038 27.7958 23.4987 27.2097 24.0847C26.6237 24.6708 25.8288 25 25 25C24.1712 25 23.3763 24.6708 22.7903 24.0847C22.2042 23.4987 21.875 22.7038 21.875 21.875Z" fill="#FFDD2D"/>
<path d="M25 32.8125C23.9184 32.8125 22.8611 33.1332 21.9617 33.7342C21.0624 34.3351 20.3615 35.1892 19.9475 36.1885C19.5336 37.1877 19.4253 38.2873 19.6363 39.3481C19.8473 40.409 20.3682 41.3834 21.133 42.1482C21.8978 42.9131 22.8723 43.4339 23.9331 43.6449C24.9939 43.8559 26.0935 43.7476 27.0928 43.3337C28.0921 42.9198 28.9462 42.2189 29.5471 41.3195C30.148 40.4202 30.4688 39.3629 30.4688 38.2812C30.4671 36.8314 29.8904 35.4413 28.8652 34.4161C27.8399 33.3909 26.4499 32.8142 25 32.8125ZM25 42.1875C24.2274 42.1875 23.4722 41.9584 22.8298 41.5292C22.1874 41.1 21.6868 40.4899 21.3911 39.7761C21.0954 39.0623 21.0181 38.2769 21.1688 37.5192C21.3195 36.7614 21.6916 36.0654 22.2379 35.5191C22.7842 34.9728 23.4802 34.6008 24.2379 34.4501C24.9957 34.2993 25.7811 34.3767 26.4949 34.6723C27.2086 34.968 27.8187 35.4687 28.2479 36.1111C28.6772 36.7534 28.9063 37.5087 28.9063 38.2812C28.905 39.3169 28.4931 40.3097 27.7608 41.042C27.0285 41.7743 26.0356 42.1863 25 42.1875Z" fill="#FFDD2D"/>
</svg>
