<svg width="45" height="45" viewBox="0 0 45 45" fill="none" xmlns="http://www.w3.org/2000/svg">
<circle cx="22.5" cy="22.5" r="22.5" fill="url(#paint0_radial_239_2768)"/>
<circle cx="22.5" cy="22.5" r="22.5" fill="url(#paint1_radial_239_2768)"/>
<g clip-path="url(#clip0_239_2768)">
<path d="M27.9208 10.5002H17.0792C13.4514 10.5002 10.5 13.4517 10.5 17.0795V27.921C10.5 31.5489 13.4514 34.5002 17.0792 34.5002H27.9208C31.5486 34.5002 34.5 31.5489 34.5 27.921V17.0795C34.5 13.4517 31.5486 10.5002 27.9208 10.5002ZM33.0827 27.921C33.0827 30.7673 30.7671 33.0829 27.9208 33.0829H17.0792C14.2329 33.0829 11.9173 30.7674 11.9173 27.921V17.0795C11.9173 14.2332 14.2329 11.9176 17.0792 11.9176H27.9208C30.7671 11.9176 33.0827 14.2332 33.0827 17.0795V27.921Z" fill="white"/>
<path d="M22.4987 15.9175C18.869 15.9175 15.916 18.8705 15.916 22.5002C15.916 26.1299 18.869 29.0829 22.4987 29.0829C26.1284 29.0829 29.0815 26.1299 29.0815 22.5001C29.0815 18.8704 26.1284 15.9175 22.4987 15.9175ZM22.4987 27.6656C19.6505 27.6656 17.3333 25.3484 17.3333 22.5001C17.3333 19.6519 19.6505 17.3347 22.4987 17.3347C25.347 17.3347 27.6642 19.652 27.6642 22.5002C27.6642 25.3484 25.347 27.6656 22.4987 27.6656Z" fill="white"/>
<path d="M29.4746 13.5237C28.3718 13.5237 27.4746 14.4209 27.4746 15.5237C27.4746 16.6265 28.3718 17.5237 29.4746 17.5237C30.5774 17.5237 31.4745 16.6264 31.4745 15.5237C31.4745 14.4209 30.5774 13.5237 29.4746 13.5237ZM29.4746 16.1063C29.1533 16.1063 28.8919 15.8449 28.8919 15.5237C28.8919 15.2024 29.1533 14.941 29.4746 14.941C29.7959 14.941 30.0572 15.2024 30.0572 15.5237C30.0572 15.8449 29.7959 16.1063 29.4746 16.1063Z" fill="white"/>
</g>
<defs>
<radialGradient id="paint0_radial_239_2768" cx="0" cy="0" r="1" gradientUnits="userSpaceOnUse" gradientTransform="translate(38.025 51.075) rotate(-115.776) scale(61.3658 91.2746)">
<stop offset="0.24392" stop-color="#FF1B90"/>
<stop offset="0.436673" stop-color="#F80261"/>
<stop offset="0.688476" stop-color="#ED00C0"/>
<stop offset="0.776787" stop-color="#C500E9"/>
<stop offset="0.893155" stop-color="#7017FF"/>
</radialGradient>
<radialGradient id="paint1_radial_239_2768" cx="0" cy="0" r="1" gradientUnits="userSpaceOnUse" gradientTransform="translate(16.3125 43.4475) rotate(-57.4396) scale(26.5892 27.6566)">
<stop stop-color="#FFD600"/>
<stop offset="0.484375" stop-color="#FF6930"/>
<stop offset="0.734375" stop-color="#FE3B36"/>
<stop offset="1" stop-color="#FE3B36" stop-opacity="0"/>
</radialGradient>
<clipPath id="clip0_239_2768">
<rect width="24" height="24" fill="white" transform="translate(10.5 10.5002)"/>
</clipPath>
</defs>
</svg>
