<svg width="45" height="45" viewBox="0 0 45 45" fill="none" xmlns="http://www.w3.org/2000/svg">
<circle cx="22.5" cy="22.5" r="22.5" fill="#FF782D"/>
<g clip-path="url(#clip0_239_2780)">
<path d="M22.5 10.5002C19.191 10.5002 16.5 13.1912 16.5 16.5002C16.5 19.8092 19.191 22.5002 22.5 22.5002C25.809 22.5002 28.5 19.8092 28.5 16.5002C28.5 13.1912 25.809 10.5002 22.5 10.5002ZM22.5 21.0002C20.019 21.0002 18 18.9812 18 16.5002C18 14.0192 20.019 12.0002 22.5 12.0002C24.981 12.0002 27 14.0192 27 16.5002C27 18.9812 24.981 21.0002 22.5 21.0002Z" fill="white"/>
<path d="M28.3661 33.3198L23.1161 25.8198C22.8371 25.4208 22.1696 25.4208 21.8876 25.8198L16.6376 33.3198C16.4006 33.6588 16.4816 34.1268 16.8221 34.3638C17.1611 34.6023 17.6291 34.5198 17.8661 34.1808L22.5011 27.5583L27.1376 34.1808C27.2831 34.3893 27.5156 34.5003 27.7511 34.5003C27.9011 34.5003 28.0496 34.4568 28.1831 34.3638C28.5221 34.1268 28.6046 33.6603 28.3661 33.3198Z" fill="white"/>
<path d="M29.9253 22.8632C29.6328 22.5707 29.1573 22.5707 28.8648 22.8632C25.3533 26.3732 19.6458 26.3732 16.1373 22.8632C15.8448 22.5707 15.3693 22.5707 15.0768 22.8632C14.7843 23.1557 14.7843 23.6312 15.0768 23.9237C17.1243 25.9697 19.8138 26.9942 22.5018 26.9942C25.1898 26.9942 27.8793 25.9697 29.9253 23.9237C30.2178 23.6312 30.2178 23.1557 29.9253 22.8632Z" fill="white"/>
</g>
<defs>
<clipPath id="clip0_239_2780">
<rect width="24" height="24" fill="white" transform="translate(10.5 10.5002)"/>
</clipPath>
</defs>
</svg>
