<svg width="23" height="23" viewBox="0 0 23 23" fill="none" xmlns="http://www.w3.org/2000/svg">
<g clip-path="url(#clip0_239_2719)">
<path d="M11.5 0C13.7866 0.00303318 15.9786 0.91271 17.5954 2.52955C19.2123 4.1464 20.122 6.33844 20.125 8.625C20.125 14.817 12.0894 22.5723 11.748 22.8994C11.6816 22.9639 11.5926 23 11.5 23C11.4074 23 11.3184 22.9639 11.252 22.8994C10.9106 22.5723 2.875 14.817 2.875 8.625C2.87803 6.33844 3.78771 4.1464 5.40455 2.52955C7.0214 0.91271 9.21344 0.00303318 11.5 0V0ZM11.5 12.5781C12.2819 12.5781 13.0462 12.3463 13.6962 11.9119C14.3463 11.4775 14.853 10.8601 15.1522 10.1378C15.4514 9.41546 15.5297 8.62061 15.3772 7.85378C15.2246 7.08695 14.8481 6.38257 14.2953 5.82972C13.7424 5.27686 13.038 4.90037 12.2712 4.74783C11.5044 4.5953 10.7095 4.67359 9.9872 4.97279C9.26486 5.27199 8.64747 5.77867 8.2131 6.42876C7.77872 7.07885 7.54688 7.84315 7.54688 8.625C7.5475 9.67324 7.96419 10.6784 8.70541 11.4196C9.44663 12.1608 10.4518 12.5775 11.5 12.5781Z" fill="#E4B91F"/>
</g>
<defs>
<clipPath id="clip0_239_2719">
<rect width="23" height="23" fill="white" transform="matrix(-1 0 0 1 23 0)"/>
</clipPath>
</defs>
</svg>
