<svg width="23" height="23" viewBox="0 0 23 23" fill="none" xmlns="http://www.w3.org/2000/svg">
<g clip-path="url(#clip0_239_2722)">
<path d="M0.627702 9.75661C0.221371 8.65905 -0.0728683 7.53813 0.0158706 6.34717C0.0719162 5.6139 0.347474 4.98806 0.884578 4.47431C1.46839 3.92319 2.0195 3.34405 2.59397 2.7836C3.34124 2.04566 4.28001 2.05034 5.02728 2.7836C5.48966 3.23663 5.94736 3.69901 6.40507 4.16139C6.84876 4.60508 7.29713 5.04878 7.74082 5.49714C8.52079 6.28645 8.52546 7.20653 7.7455 7.99117C7.18504 8.55163 6.62925 9.11675 6.05946 9.66787C5.91 9.81265 5.89599 9.93408 5.97539 10.1162C6.34903 11.013 6.8908 11.8116 7.49796 12.5589C8.72162 14.0628 10.1041 15.3985 11.7528 16.4307C12.1077 16.6502 12.4954 16.8137 12.8643 17.0145C13.0558 17.1173 13.1819 17.0846 13.336 16.9258C13.8918 16.3513 14.4616 15.7862 15.0314 15.2211C15.7787 14.4831 16.7128 14.4784 17.4601 15.2211C18.3755 16.1271 19.2862 17.0379 20.1923 17.9533C20.9536 18.7192 20.9489 19.658 20.183 20.4286C19.6645 20.9517 19.1181 21.4468 18.6324 21.9932C17.9224 22.7872 17.0257 23.0488 16.0076 22.9927C14.5223 22.9133 13.1539 22.4182 11.8322 21.7784C8.8991 20.3539 6.39573 18.3783 4.29869 15.8843C2.74809 14.0348 1.46839 12.0265 0.627702 9.75661ZM22.9992 11.4286C22.9992 5.12817 17.8711 0 11.5706 0V2.17644C16.6708 2.17644 20.8228 6.32848 20.8228 11.4286H22.9992ZM16.7408 11.4286H18.9173C18.9173 7.37934 15.6199 4.08199 11.5706 4.08199V6.25843C12.9531 6.25843 14.2515 6.79553 15.2276 7.77166C16.2037 8.74779 16.7408 10.0462 16.7408 11.4286Z" fill="#E4B91F"/>
</g>
<defs>
<clipPath id="clip0_239_2722">
<rect width="23" height="23" fill="white"/>
</clipPath>
</defs>
</svg>
