<svg width="45" height="45" viewBox="0 0 45 45" fill="none" xmlns="http://www.w3.org/2000/svg">
<circle cx="22.5" cy="22.5" r="22.5" fill="black"/>
<path fill-rule="evenodd" clip-rule="evenodd" d="M22.9688 10.7815C22.71 10.7815 22.5 10.9915 22.5 11.2502V27.1878C22.5 28.4816 21.45 29.5316 20.1563 29.5316C18.8625 29.5316 17.8125 28.4816 17.8125 27.1878C17.8125 25.894 18.8625 24.844 20.1563 24.844C20.415 24.844 20.625 24.634 20.625 24.3753V20.6253C20.625 20.3665 20.415 20.1565 20.1563 20.1565C16.2755 20.1565 13.125 23.307 13.125 27.1878C13.125 31.0686 16.2755 34.2191 20.1563 34.2191C24.0371 34.2191 27.1875 31.0686 27.1875 27.1878V19.4506C28.1888 19.9039 29.2993 20.1565 30.4688 20.1565H31.4063C31.6651 20.1565 31.8751 19.9465 31.8751 19.6878V15.9378C31.8751 15.679 31.6651 15.469 31.4063 15.469H30.4688C28.658 15.469 27.1875 13.9985 27.1875 12.1877V11.2502C27.1875 10.9915 26.9775 10.7815 26.7188 10.7815H22.9688ZM23.4375 11.719H26.25V12.1877C26.25 14.516 28.1405 16.4065 30.4688 16.4065H30.9376V19.219H30.4688C29.1886 19.219 27.9882 18.8764 26.9536 18.2773C26.8088 18.1934 26.6297 18.1934 26.4849 18.2768C26.3396 18.3607 26.25 18.5154 26.25 18.6832V27.1878C26.25 30.5511 23.5196 33.2816 20.1563 33.2816C16.793 33.2816 14.0625 30.5511 14.0625 27.1878C14.0625 23.9825 16.5431 21.3514 19.6875 21.1118V23.9398C18.0985 24.1676 16.875 25.5359 16.875 27.1878C16.875 28.9986 18.3455 30.4691 20.1563 30.4691C21.9671 30.4691 23.4375 28.9986 23.4375 27.1878V11.719Z" fill="white"/>
</svg>
