<svg width="45" height="45" viewBox="0 0 45 45" fill="none" xmlns="http://www.w3.org/2000/svg">
<g clip-path="url(#clip0_579_2218)">
<path d="M22.5 45C34.9264 45 45 34.9264 45 22.5C45 10.0736 34.9264 0 22.5 0C10.0736 0 0 10.0736 0 22.5C0 34.9264 10.0736 45 22.5 45Z" fill="#6F3FAA"/>
<path d="M35.4958 15.2002V15.1669C35.1941 13.9448 34.4066 12.6817 33.3736 11.6181C32.1668 10.3703 30.6301 9.39109 29.1625 9.07404H29.1318C24.7552 8.23541 20.2591 8.23541 15.8824 9.07404H15.8517C13.1262 9.66467 10.1679 12.513 9.50826 15.1669V15.2002C8.69777 18.8797 8.69777 22.6914 9.50826 26.3709V26.4016C9.97871 28.2936 11.6151 30.2828 13.502 31.4846C14.1182 31.8861 14.789 32.197 15.4938 32.4076V35.3684C15.4948 35.605 15.5662 35.8359 15.6989 36.0318C15.8317 36.2277 16.0198 36.3796 16.2392 36.4682C16.4586 36.5568 16.6994 36.578 16.9309 36.5292C17.1625 36.4804 17.3742 36.3638 17.5392 36.1942L20.5409 33.0749C21.1904 33.1107 21.8449 33.1311 22.4943 33.1311C24.7175 33.1305 26.9355 32.9199 29.1191 32.5022H29.1497C31.8676 31.909 34.8284 29.0607 35.483 26.4067V26.376C36.2984 22.6958 36.3028 18.8822 35.4958 15.2002ZM33.1205 25.8238C32.6807 27.5547 30.4358 29.7101 28.6486 30.1064C26.3273 30.5511 23.9647 30.744 21.602 30.6817C21.579 30.6803 21.556 30.6842 21.5347 30.693C21.5134 30.7019 21.4945 30.7155 21.4793 30.7328L19.2881 32.9828L16.9563 35.3735C16.919 35.4129 16.8707 35.4402 16.8177 35.4519C16.7647 35.4636 16.7094 35.4591 16.659 35.4389C16.6086 35.4188 16.5653 35.3841 16.5349 35.3391C16.5045 35.2941 16.4883 35.2411 16.4884 35.1868V30.2777C16.4884 30.2383 16.4746 30.2 16.4494 30.1696C16.4242 30.1393 16.3891 30.1187 16.3503 30.1115C15.9775 30.023 15.6181 29.8855 15.2816 29.7024C13.7628 28.8919 12.2313 27.23 11.8784 25.8238C11.1476 22.4978 11.1476 19.0528 11.8784 15.7269C12.3156 14.0036 14.5733 11.8533 16.3477 11.4544C20.4112 10.6769 24.5852 10.6769 28.6486 11.4544C29.633 11.6743 30.758 12.4235 31.6375 13.3439C32.3611 14.0931 32.9159 14.9573 33.1205 15.7346C33.8502 19.058 33.8502 22.5003 33.1205 25.8238Z" fill="white"/>
<path d="M28.7123 26.0796C28.3801 26.8376 27.809 27.4662 27.0862 27.8693C26.8594 27.9656 26.6239 28.0401 26.383 28.0918C26.1095 28.0099 25.8487 27.9537 25.616 27.854C23.6778 27.0998 21.8735 26.0388 20.2722 24.7117C19.7966 24.306 19.3498 23.8677 18.935 23.4C17.9109 22.2206 17.0508 20.9081 16.3782 19.4983C16.0509 18.831 15.7748 18.1406 15.4936 17.4528C15.2379 16.8264 15.6163 16.1744 16.0049 15.7065C16.3853 15.2726 16.8532 14.9241 17.3779 14.6838C17.5626 14.591 17.7738 14.5658 17.9751 14.6125C18.1764 14.6592 18.355 14.7749 18.4799 14.9395C19.1332 15.6734 19.709 16.4729 20.1981 17.325C20.3522 17.5728 20.4049 17.8704 20.3454 18.156C20.2859 18.4417 20.1187 18.6935 19.8785 18.8591C19.7507 18.9486 19.6228 19.0509 19.5129 19.1506C19.4045 19.2308 19.311 19.3295 19.2367 19.4421C19.1726 19.5474 19.1337 19.6661 19.1231 19.789C19.1125 19.9118 19.1303 20.0355 19.1754 20.1503C19.6688 21.508 20.418 22.6406 21.5379 23.4358C21.9169 23.7038 22.3252 23.9277 22.7549 24.1031C23.0355 24.2557 23.3509 24.3333 23.6703 24.3281C24.2276 24.2617 24.4117 23.6455 24.8004 23.3284C24.9788 23.1824 25.1995 23.0977 25.4298 23.0871C25.6601 23.0765 25.8877 23.1405 26.0788 23.2696C26.493 23.5253 26.8918 23.8142 27.2907 24.0955C27.6852 24.3647 28.065 24.6549 28.4285 24.9648C28.5985 25.0883 28.7199 25.2673 28.7717 25.4709C28.8236 25.6745 28.8025 25.8898 28.7123 26.0796Z" fill="white"/>
<path d="M23.2335 13.8272H22.9062C23.0111 13.8221 23.121 13.8272 23.2335 13.8272Z" fill="white"/>
<path d="M28.8921 21.4898C28.6364 21.4898 28.5111 21.2725 28.4932 21.0347C28.46 20.5668 28.4344 20.0964 28.3705 19.631C28.26 18.8459 27.9865 18.0926 27.5676 17.4194C27.1371 16.7181 26.5642 16.115 25.8859 15.649C25.2077 15.183 24.4392 14.8646 23.6301 14.7143C23.262 14.6478 22.8861 14.6325 22.5154 14.5941C22.2801 14.5685 21.9708 14.5532 21.9196 14.2617C21.912 14.2051 21.9165 14.1475 21.9329 14.0928C21.9493 14.0381 21.9772 13.9875 22.0147 13.9444C22.0522 13.9013 22.0985 13.8668 22.1504 13.843C22.2024 13.8192 22.2588 13.8068 22.3159 13.8066C22.3772 13.8031 22.4387 13.8031 22.5 13.8066C23.6176 13.8161 24.7156 14.101 25.6968 14.6362C26.678 15.1714 27.512 15.9403 28.125 16.8748C28.609 17.628 28.9376 18.4704 29.0915 19.3523C29.1887 19.9046 29.2245 20.4722 29.2679 21.0347C29.2766 21.0899 29.2736 21.1462 29.2589 21.2001C29.2441 21.2539 29.2182 21.304 29.1826 21.347C29.1471 21.3901 29.1028 21.4251 29.0527 21.4497C29.0026 21.4743 28.9479 21.488 28.8921 21.4898Z" fill="white"/>
<path d="M27.5089 20.2958C27.5075 20.3718 27.4972 20.4473 27.4782 20.5208C27.4559 20.5947 27.4113 20.66 27.3506 20.7077C27.2899 20.7554 27.2159 20.7832 27.1388 20.7874C27.0617 20.7916 26.9852 20.772 26.9197 20.7311C26.8541 20.6903 26.8028 20.6302 26.7726 20.5592C26.7444 20.4559 26.7315 20.3491 26.7342 20.2421C26.7402 19.6702 26.627 19.1034 26.4018 18.5776C26.3507 18.4651 26.2944 18.3501 26.2305 18.2401C25.8645 17.6093 25.3213 17.0999 24.6683 16.7751C24.2743 16.5891 23.8559 16.4599 23.4257 16.3916C23.2365 16.3609 23.0473 16.343 22.8581 16.3174C22.8088 16.3149 22.7606 16.3024 22.7164 16.2805C22.6722 16.2587 22.6329 16.228 22.6011 16.1904C22.5692 16.1528 22.5454 16.109 22.5311 16.0618C22.5168 16.0146 22.5123 15.965 22.518 15.916C22.518 15.8659 22.5287 15.8164 22.5492 15.7706C22.5697 15.7249 22.5997 15.6841 22.6371 15.6508C22.6745 15.6174 22.7185 15.5924 22.7663 15.5773C22.8141 15.5622 22.8645 15.5574 22.9143 15.5632C23.6651 15.5921 24.4005 15.7841 25.0697 16.1257C25.8869 16.5369 26.5534 17.1954 26.9745 18.0075C27.2117 18.4816 27.3706 18.9911 27.445 19.516C27.4588 19.5845 27.469 19.6536 27.4757 19.7231C27.4885 19.8765 27.4936 20.0299 27.5064 20.2191C27.5064 20.237 27.5089 20.26 27.5089 20.2958Z" fill="white"/>
<path d="M25.7564 19.943C25.7419 20.0078 25.7084 20.0668 25.6601 20.1123C25.6118 20.1579 25.5509 20.188 25.4854 20.1986H25.4291C25.3453 20.2041 25.2621 20.182 25.192 20.1359C25.1218 20.0898 25.0686 20.022 25.0405 19.943C25.0246 19.901 25.0142 19.8572 25.0098 19.8126C24.9963 19.6405 24.9707 19.4696 24.9331 19.3012C24.8571 18.9602 24.6633 18.657 24.3859 18.4447C24.2518 18.3484 24.1022 18.2757 23.9436 18.2299C23.7416 18.1711 23.5294 18.1864 23.33 18.1378C23.2314 18.1204 23.1437 18.0645 23.0862 17.9826C23.0287 17.9007 23.006 17.7993 23.0231 17.7006C23.0422 17.6061 23.095 17.5218 23.1717 17.4635C23.2484 17.4051 23.3438 17.3767 23.4399 17.3836C24.6109 17.468 25.4854 18.0305 25.7104 19.2859C25.7335 19.4024 25.7497 19.5202 25.7589 19.6387C25.7733 19.7397 25.7724 19.8422 25.7564 19.943Z" fill="white"/>
</g>
<defs>
<clipPath id="clip0_579_2218">
<rect width="45" height="45" fill="white"/>
</clipPath>
</defs>
</svg>
