<svg width="45" height="45" viewBox="0 0 45 45" fill="none" xmlns="http://www.w3.org/2000/svg">
<circle cx="22.5" cy="22.5" r="22.5" fill="#5A82E9"/>
<g clip-path="url(#clip0_239_2760)">
<path d="M34.314 30.3927H30.9388C30.4197 30.3939 29.929 30.155 29.6097 29.7456L26.319 25.5479C26.1713 25.3592 25.9204 25.2846 25.6936 25.3625C25.467 25.4402 25.3143 25.6528 25.3135 25.8923V27.5799C25.3135 29.134 23.8016 30.3927 21.9383 30.3927C21.2099 30.3993 20.4949 30.1968 19.8781 29.8091C15.1528 26.7854 11.9463 22.9673 9.16199 17.0468C8.91664 16.5243 8.95537 15.9127 9.26458 15.4253C9.57379 14.9379 10.1106 14.6425 10.6879 14.6419H14.063C14.7383 14.6402 15.3495 15.0413 15.6169 15.6614L15.9966 16.5474C16.5703 17.8784 17.3405 19.1159 18.282 20.218C18.3127 20.2509 18.3563 20.2691 18.4015 20.2672C18.4429 20.2711 18.4843 20.2573 18.515 20.2291C18.5459 20.2011 18.5634 20.1611 18.5632 20.1195V17.9186C17.7911 17.6427 17.3292 16.8519 17.4678 16.0439C17.6065 15.236 18.3059 14.6445 19.1258 14.6419H23.6259C24.5579 14.6419 25.3135 15.3975 25.3135 16.3294V20.2672C25.3139 20.5183 25.4808 20.7387 25.7224 20.8073C25.964 20.8759 26.2218 20.776 26.3542 20.5624L29.4972 15.4504C29.8019 14.9459 30.3494 14.6388 30.9388 14.6419H34.314C34.9376 14.6421 35.51 14.9863 35.803 15.5367C36.0959 16.0872 36.0613 16.7544 35.7132 17.2717L32.1693 22.1867C32.0261 22.3839 32.0261 22.6507 32.1693 22.8478L35.6851 27.7206C36.0543 28.2348 36.1048 28.9123 35.8157 29.4756C35.5267 30.0388 34.9468 30.3927 34.314 30.3927ZM25.8761 24.2048C26.3952 24.2037 26.8857 24.4425 27.205 24.8518L30.4957 29.0495C30.602 29.1865 30.7654 29.2671 30.9388 29.2675H34.314C34.5258 29.2683 34.72 29.1499 34.8164 28.9614C34.913 28.7727 34.8953 28.5461 34.7709 28.3745L31.2552 23.5017C30.8292 22.9119 30.8292 22.1157 31.2552 21.5259L34.7921 16.6249C34.8477 16.5363 34.877 16.4339 34.8764 16.3294C34.8764 16.0188 34.6246 15.7669 34.314 15.7669H30.9388C30.7437 15.7671 30.5629 15.8682 30.4607 16.034L27.3175 21.146C26.924 21.7925 26.1482 22.098 25.4196 21.8932C24.6909 21.6886 24.1879 21.0239 24.1885 20.2672V16.3294C24.1885 16.0188 23.9366 15.7669 23.6259 15.7669H19.1258C18.8149 15.7669 18.5632 16.0188 18.5632 16.3294C18.5632 16.6401 18.8149 16.892 19.1258 16.892H19.6881V20.1195C19.6818 20.6533 19.3466 21.1277 18.8454 21.3121C18.3444 21.4962 17.7816 21.3518 17.431 20.9493C16.4176 19.7625 15.5879 18.4305 14.9701 16.9975L14.5832 16.1115C14.4952 15.9022 14.29 15.7662 14.063 15.7669H10.6879C10.4959 15.7679 10.3177 15.8668 10.2151 16.0291C10.1125 16.1914 10.0999 16.3948 10.1815 16.5686C12.9028 22.3555 15.8911 25.9206 20.4897 28.8668C20.9254 29.1336 21.4274 29.2726 21.9383 29.2675C23.1758 29.2675 24.1885 28.5082 24.1885 27.5799V25.8923C24.1885 24.9604 24.9439 24.2048 25.8761 24.2048Z" fill="white"/>
</g>
<defs>
<clipPath id="clip0_239_2760">
<rect width="27" height="27" fill="white" transform="translate(9.00195 9.00024)"/>
</clipPath>
</defs>
</svg>
