<svg width="45" height="45" viewBox="0 0 45 45" fill="none" xmlns="http://www.w3.org/2000/svg">
<circle cx="22.5" cy="22.5" r="22.5" fill="#1D9E51"/>
<path d="M22.4991 34C20.2991 34 18.1991 33.4 16.3991 32.2L12.3991 33.5C12.1991 33.6 11.9991 33.5 11.8991 33.4C11.7991 33.3 11.6991 33.1 11.7991 32.9L13.0991 29.1C11.7991 27.2 11.0991 24.9 11.0991 22.6C10.9991 16.2 16.1991 11 22.4991 11C28.7991 11 33.9991 16.2 33.9991 22.5C33.9991 28.8 28.7991 34 22.4991 34ZM16.4991 31.2C16.5991 31.2 16.6991 31.2 16.7991 31.3C18.4991 32.4 20.4991 33 22.5991 33C28.3991 33 33.0991 28.3 33.0991 22.5C33.0991 16.7 28.2991 12 22.4991 12C16.6991 12 11.9991 16.7 11.9991 22.5C11.9991 24.7 12.6991 26.9 13.9991 28.7C14.0991 28.8 14.0991 29 14.0991 29.2L12.9991 32.4L16.2991 31.4C16.3991 31.2 16.3991 31.2 16.4991 31.2ZM26.0991 29.2C25.2991 29.2 24.2991 28.9 22.6991 28.3C19.9991 27.2 17.9991 24.7 17.0991 23.4L16.9991 23.3C16.4991 22.5 15.5991 21.1 15.5991 19.6C15.5991 17.9 16.4991 17 16.7991 16.6C17.1991 16.2 17.6991 16 18.2991 16H18.5991C19.1991 16 19.4991 16.2 19.7991 16.9L20.0991 17.5C20.3991 18.2 20.7991 19.1 20.7991 19.2C20.9991 19.6 20.9991 19.9 20.7991 20.2C20.6991 20.4 20.5991 20.6 20.3991 20.8C20.2991 20.9 20.1991 21 20.0991 21.1C19.9991 21.2 19.8991 21.3 19.7991 21.4C19.9991 21.5 19.8991 21.5 19.8991 21.5C20.3991 22.3 20.9991 23 21.5991 23.6C22.6991 24.5 23.4991 24.9 23.8991 25.1H23.9991C24.0991 25.1 24.0991 25.2 24.1991 25.1C24.3991 24.9 24.6991 24.5 24.8991 24.1L24.9991 24C25.2991 23.6 25.6991 23.5 25.8991 23.5C25.9991 23.5 26.1991 23.5 26.3991 23.6C26.6991 23.7 27.7991 24.2 28.5991 24.7L28.7991 24.8C29.0991 24.9 29.2991 25 29.3991 25.3C29.5991 25.7 29.4991 26.6 29.2991 27.2C28.9991 28.1 27.7991 28.9 26.7991 29.1C26.5991 29.1 26.3991 29.2 26.0991 29.2ZM18.3991 17C18.0991 17 17.7991 17.1 17.5991 17.2C17.2991 17.5 16.5991 18.2 16.5991 19.5C16.5991 20.7 17.3991 22 17.7991 22.5L17.8991 22.6C19.3991 24.8 21.1991 26.4 23.0991 27.2C24.4991 27.8 25.4991 28.1 26.0991 28.1C26.2991 28.1 26.4991 28.1 26.5991 28C27.2991 27.8 28.1991 27.3 28.3991 26.8C28.5991 26.3 28.5991 25.9 28.5991 25.7C28.4991 25.7 28.4991 25.6 28.3991 25.6L28.1991 25.5C27.0991 24.9 26.1991 24.5 26.0991 24.5C25.9991 24.5 25.9991 24.4 25.8991 24.6L25.7991 24.7C25.4991 25.1 25.1991 25.5 24.9991 25.8C24.6991 26.1 24.0991 26.2 23.6991 26H23.5991C23.1991 25.8 22.1991 25.4 20.9991 24.4C20.2991 23.8 19.6991 23 19.0991 22.1C18.6991 21.5 19.0991 21 19.2991 20.8C19.2991 20.7 19.3991 20.5 19.4991 20.4C19.5991 20.3 19.5991 20.3 19.6991 20.2C19.8991 20 19.8991 20 19.9991 19.8C19.9991 19.8 19.9991 19.7 19.9991 19.6C19.8991 19.6 19.4991 18.6 19.1991 17.9L18.9991 17.3C18.8991 17.1 18.7991 17 18.7991 17H18.6991C18.4991 17 18.3991 17 18.3991 17Z" fill="white"/>
</svg>
