<svg width="45" height="45" viewBox="0 0 45 45" fill="none" xmlns="http://www.w3.org/2000/svg">
<circle cx="22.5" cy="22.5" r="22.5" fill="#F02121"/>
<g clip-path="url(#clip0_239_2745)">
<mask id="mask0_239_2745" style="mask-type:luminance" maskUnits="userSpaceOnUse" x="9" y="9" width="28" height="28">
<path d="M9.00195 9.00025H36.0019V36.0002H9.00195V9.00025Z" fill="white"/>
</mask>
<g mask="url(#mask0_239_2745)">
<path d="M33.8949 31.0344C33.1938 31.5536 32.3261 31.8606 31.3867 31.8606H13.6152C11.2853 31.8606 9.39648 29.9718 9.39648 27.6418V17.3586C9.39648 15.0287 11.2853 13.1399 13.6152 13.1399H14.0838" stroke="white" stroke-miterlimit="10" stroke-linecap="round" stroke-linejoin="round"/>
<path d="M15.7715 13.1401H31.3869C33.7169 13.1401 35.6057 15.0289 35.6057 17.3588V27.642C35.6057 28.4242 35.3928 29.1567 35.0218 29.7847" stroke="white" stroke-miterlimit="10" stroke-linecap="round" stroke-linejoin="round"/>
<path d="M19.3652 25.6443V26.1682C19.3652 26.6564 19.8983 26.9574 20.3164 26.7053L26.3967 23.0376C26.801 22.7937 26.801 22.2074 26.3967 21.9635L20.3164 18.2958C19.8983 18.0437 19.3652 18.3447 19.3652 18.8329V23.969" stroke="white" stroke-miterlimit="10" stroke-linecap="round" stroke-linejoin="round"/>
</g>
</g>
<defs>
<clipPath id="clip0_239_2745">
<rect width="27" height="27" fill="white" transform="translate(9.00195 9.00024)"/>
</clipPath>
</defs>
</svg>
